# xmcd
#
# Track frame offsets: 
#        182
#        14540
#        31947
#        44797
#        62492
#        85387
#        101897
#        112097
#        122552
#        136767
#        149952
#        161910
#        184062
#        197570
#        204277
#        210790
#        221397
#
# Disc length: 3122 seconds
#
# Revision: 4
# Processed by: cddbd v1.5.2PL0 Copyright (c) Steve Scherf et al.
# Submitted via: ExactAudioCopy v0.99pb5
#
DISCID=fd0c3011
DTITLE=Alexis Korner's Blues Incorporated (feat Duffy Power) - Sky Hig
DTITLE=h
DYEAR=1994
DGENRE=Blues
TTITLE0=Long Black Train
TTITLE1=Rock Me
TTITLE2=I'm So Glad
TTITLE3=Wednesday Night Prayer Meeting
TTITLE4=Honesty
TTITLE5=Yellow Dog Blues
TTITLE6=Let The Good Times Roll
TTITLE7=OOO-Wee Baby
TTITLE8=River's Invitation
TTITLE9=Money Honey
TTITLE10=Big Road Blues
TTITLE11=Louise
TTITLE12=Floating
TTITLE13=Anchor 5 Miles
TTITLE14=Daph's Dance
TTITLE15=See See Rider (bonus track)
TTITLE16=Blues A La King (bonus track)
EXTD=
EXTT0=
EXTT1=
EXTT2=
EXTT3=
EXTT4=
EXTT5=
EXTT6=
EXTT7=
EXTT8=
EXTT9=
EXTT10=
EXTT11=
EXTT12=
EXTT13=
EXTT14=
EXTT15=
EXTT16=
PLAYORDER=
